<svg width="20" height="20" viewBox="0 0 20 20" fill="none" xmlns="http://www.w3.org/2000/svg">
<path d="M15.1123 15.6904L15.1339 15.6731L15.1535 15.6536C15.179 15.628 15.193 15.6143 15.2055 15.6032C15.2065 15.6036 15.2076 15.6041 15.2088 15.6047C15.2228 15.6112 15.241 15.6232 15.2589 15.6411C15.2768 15.6589 15.2888 15.6771 15.2953 15.6911C15.2983 15.6975 15.2995 15.7016 15.3 15.7034C15.3 15.7273 15.2999 15.7472 15.2989 15.7679C15.2986 15.7741 15.2983 15.7799 15.2979 15.7853C12.6584 17.9919 8.85732 18.3276 5.98933 16.2923L5.82117 16.1729L5.61776 16.2068L3.25882 16.6C3.19492 16.5998 3.13188 16.599 3.07032 16.5955L3.09101 16.5917L5.74587 16.1H5.74617H5.74657H5.74698H5.74739H5.74779H5.7482H5.7486H5.749H5.7494H5.7498H5.7502H5.75059H5.75099H5.75138H5.75177H5.75216H5.75255H5.75294H5.75332H5.75371H5.75409H5.75448H5.75486H5.75524H5.75562H5.75599H5.75637H5.75674H5.75712H5.75749H5.75786H5.75823H5.7586H5.75897H5.75934H5.7597H5.76007H5.76043H5.76079H5.76115H5.76151H5.76187H5.76223H5.76259H5.76294H5.7633H5.76365H5.764H5.76436H5.76471H5.76506H5.7654H5.76575H5.7661H5.76644H5.76679H5.76713H5.76747H5.76782H5.76816H5.7685H5.76884H5.76917H5.76951H5.76985H5.77018H5.77052H5.77085H5.77118H5.77152H5.77185H5.77218H5.77251H5.77284H5.77316H5.77349H5.77382H5.77414H5.77447H5.77479H5.77512H5.77544H5.77576H5.77608H5.7764H5.77672H5.77704H5.77736H5.77768H5.77799H5.77831H5.77863H5.77894H5.77926H5.77957H5.77988H5.7802H5.78051H5.78082H5.78113H5.78144H5.78175H5.78206H5.78237H5.78268H5.78299H5.78329H5.7836H5.78391H5.78421H5.78452H5.78482H5.78513H5.78543H5.78573H5.78604H5.78634H5.78664H5.78694H5.78725H5.78755H5.78785H5.78815H5.78845H5.78875H5.78905H5.78934H5.78964H5.78994H5.79024H5.79054H5.79083H5.79113H5.79143H5.79173H5.79202H5.79232H5.79261H5.79291H5.7932H5.7935H5.7938H5.79409H5.79438H5.79468H5.79497H5.79527H5.79556H5.79586H5.79615H5.79644H5.79674H5.79703H5.79732H5.79762H5.79791H5.7982H5.7985H5.79879H5.79908H5.79938H5.79967H5.79996H5.80025H5.80055H5.80084H5.80113H5.80143H5.80172H5.80201H5.80231H5.8026H5.80289H5.80319H5.80348H5.80377H5.80407H5.80436H5.80465H5.80495H5.80524H5.80554H5.80583H5.80613H5.80642H5.80672H5.80701H5.80731H5.8076H5.8079H5.8082H5.80849H5.80879H5.80909H5.80939H5.80968H5.80998H5.81028H5.81058H5.81088H5.81118H5.81148H5.81178H5.81208H5.81238H5.81268H5.81298H5.81328H5.81358H5.81389H5.81419H5.81449H5.8148H5.8151H5.81541H5.81571H5.81602H5.81632H5.81663H5.81694H5.81724H5.81755H5.81786H5.81817H5.81848H5.81879H5.8191H5.81941H5.81973H5.82004H5.82035H5.82067H5.82098H5.8213H5.82161H5.82193H5.82224H5.82256H5.82288H5.8232H5.82352H5.82384H5.82416H5.82448H5.82481H5.82513H5.82545H5.82578H5.8261H5.82643H5.82676H5.82709H5.82741H5.82774H5.82807H5.82841H5.82874H5.82907H5.8294H5.82974H5.83007H5.83041H5.83075H5.83109H5.83143H5.83177H5.83211H5.83245H5.83279H5.83313H5.83348H5.83382H5.83417H5.83452H5.83487H5.83522H5.83557H5.83592H5.83627H5.83663H5.83698H5.83734H5.83769H5.83805H5.83841H5.83877H5.83913H5.83949H5.83986H5.84022H5.84059H5.84095H5.84132H5.84169H5.84206H5.84243H5.8428H5.84318H5.84355H5.84393H5.84431H5.84469H5.84507H5.84545H5.84583H5.84621H5.8466H5.84698H5.84737H5.84776H5.84815H5.84854H5.84894H5.84933H5.84973H5.85012H5.85052H5.85092H5.85132H5.85172H5.85213H5.85253H5.85294H5.85335H5.85376H5.85417H5.85458H5.855H5.85541H5.85583H5.85625H5.85667H5.85709H5.85751H5.85793H5.85836H5.85879H5.85922H5.85965H5.86008H5.86051H5.86095H5.86139H5.86182H5.86227H5.86271H5.86315H5.8636H5.86404H5.86449H5.86494H5.86539H5.86585H5.8663H5.86676H5.86722H5.86768H5.86814H5.8686H5.86907H5.86954H5.87001H5.87048H5.87095H5.87142H5.8719H5.87238H5.87286H5.87334H5.87382H5.87431H5.8748H5.87528H5.87578H5.87627H5.87676H5.87726H5.87776H5.87826H5.87876H5.87927H5.87977H5.88028H5.88079H5.8813H5.88182H5.88233H5.88285H5.88337H5.8839H5.88442H5.88495H5.88547H5.886H5.88654H5.88707H5.88761H5.88815H5.88869H5.88923H5.88978H5.89032H5.89087H5.89142H5.89198H5.89253H5.89309H5.89365H5.89422H5.89478H5.89535H5.89592H5.89649H5.89706H5.89764H5.89821H5.89879H5.89938H5.89949L5.91323 16.1096C6.97024 16.8495 8.25324 17.3895 9.55844 17.4983C10.8366 17.6048 12.223 17.3933 13.4069 16.8552L13.4153 16.8514L13.4236 16.8472C14.0711 16.5234 14.6061 16.0954 15.0961 15.7035L15.1123 15.6904ZM2.53572 15.9143L2.42328 16.1954C2.4182 16.1849 2.41327 16.1741 2.4085 16.1631C2.32203 15.9643 2.32598 15.7813 2.36421 15.6857L2.36558 15.6822L3.26558 13.3822L3.33627 13.2016L3.26663 13.0205C2.79368 11.7909 2.60494 10.5672 2.69799 9.24547C3.17246 5.02262 6.92756 2.02276 11.0547 2.39796L11.0547 2.39805L11.0643 2.39874C12.3543 2.49088 13.5549 2.94793 14.5767 3.68328C14.6916 3.79376 14.8036 3.87779 14.8927 3.94455L14.9 3.95001C14.9783 4.00878 15.0394 4.05509 15.0959 4.10577C15.1122 4.13546 15.1274 4.16183 15.1403 4.18425L15.1406 4.18473C15.1667 4.22992 15.1797 4.25257 15.1902 4.27362C15.1969 4.28689 15.1992 4.29321 15.1998 4.29509C15.1998 4.29549 15.1999 4.29606 15.1999 4.29683C15.1994 4.29875 15.1982 4.30278 15.1953 4.30888C15.1888 4.32289 15.1768 4.3411 15.1589 4.35896C15.141 4.37682 15.1228 4.38882 15.1088 4.39536C15.1025 4.39831 15.0984 4.39955 15.0966 4.40001C15.0726 4.40001 15.0525 4.4 15.0339 4.39983C15.0216 4.39973 15.011 4.39956 15.0018 4.39932C12.9541 2.59017 9.85686 2.06696 7.18535 3.34841C3.52995 5.0697 1.94402 9.35952 3.53659 13.2879L3.54397 13.3061L3.55275 13.3236C3.55791 13.3339 3.56209 13.3427 3.56545 13.35C3.56209 13.3573 3.55791 13.3661 3.55275 13.3764L3.54345 13.395L3.53572 13.4143L2.53572 15.9143Z" fill="#1B1B2B" stroke="#1B1B2B"/>
<path d="M17.6 10.5H13.9C13.6 10.5 13.3 10.3 13.3 9.89999C13.3 9.59999 13.5 9.29999 13.9 9.29999H17.6C17.9 9.29999 18.2 9.49999 18.2 9.89999C18.2 10.2 17.9 10.5 17.6 10.5Z" fill="#1B1B2B"/>
<path d="M15.2 11.8V8.1C15.2 7.8 15.4 7.5 15.8 7.5C16.1 7.5 16.4 7.7 16.4 8.1V11.8C16.4 12.1 16.2 12.4 15.8 12.4C15.4 12.3 15.2 12.1 15.2 11.8Z" fill="#1B1B2B"/>
<path d="M13.2 12.4L12.2 11.1C12 10.8 11.6 10.6 11.2 10.7L10.2 10.8C9.90004 10.4 9.70004 9.89999 9.70004 9.39999L10.5 8.79999C10.8 8.59999 11 8.19999 11 7.79999L10.8 6.09999C10.8 5.69999 10.5 5.39999 10.2 5.19999C8.90004 4.59999 7.40004 5.19999 6.90004 6.49999C5.50004 9.59999 6.90004 13.3 10 14.7C11.3 15.3 12.8 14.7 13.3 13.4C13.5 13.1 13.4 12.7 13.2 12.4ZM10.5 13.7C7.90004 12.6 6.80004 9.59999 7.90004 6.99999C8.20004 6.29999 9.00004 5.99999 9.70004 6.29999L9.90004 7.89999L8.90004 8.59999C8.70004 8.69999 8.60004 8.89999 8.60004 9.09999C8.60004 10.1 9.00004 11 9.60004 11.7C9.70004 11.8 9.90004 11.9 10.1 11.9L11.4 11.7L12.4 13C12 13.7 11.2 14 10.5 13.7Z" fill="#1B1B2B"/>
</svg>
