<svg width="45" height="45" viewBox="0 0 45 45" fill="none" xmlns="http://www.w3.org/2000/svg">
<path d="M33.6123 34.8154L33.6339 34.7981L33.6535 34.7785C33.7726 34.6595 33.8434 34.592 33.9228 34.5443C33.9874 34.5056 34.0675 34.475 34.1999 34.475C34.3748 34.475 34.5916 34.5675 34.7745 34.7504C34.9575 34.9334 35.0499 35.1501 35.0499 35.325C35.0499 35.4404 35.049 35.5702 35.0286 35.6928C35.0187 35.7524 35.0058 35.7985 34.9922 35.8318C34.9848 35.8499 34.9786 35.8607 34.9748 35.8665C28.8333 41.1124 19.8761 41.9659 13.1143 37.1672L12.9461 37.0479L12.7427 37.0818L7.38361 37.975C7.16629 37.9748 6.9248 37.9731 6.6872 37.9493C6.42895 37.9235 6.21836 37.8752 6.07355 37.8028L6.04177 37.7869L6.00806 37.7756C5.50114 37.6067 5.08642 37.1693 4.84598 36.6162C4.60326 36.058 4.57596 35.4687 4.73919 35.0607L4.74056 35.0572L6.76556 29.8822L6.83625 29.7015L6.76662 29.5205C5.66866 26.6658 5.22993 23.8172 5.44797 20.7454C6.54745 10.8976 15.3025 3.89773 24.9297 4.77292L24.9297 4.77302L24.9393 4.77371C27.9786 4.9908 30.8038 6.07244 33.2003 7.8072C33.4408 8.04312 33.6791 8.22185 33.8913 8.38101L33.8999 8.38748C34.1062 8.54217 34.2882 8.6794 34.4671 8.85047C34.5168 8.94527 34.565 9.02917 34.6071 9.10218L34.6158 9.11735C34.6669 9.20589 34.7049 9.27171 34.7371 9.33608C34.7969 9.45576 34.8249 9.54754 34.8249 9.67498C34.8249 9.84986 34.7325 10.0666 34.5495 10.2496C34.3666 10.4325 34.1498 10.525 33.9749 10.525C33.7319 10.525 33.6198 10.5228 33.5386 10.5066C33.4917 10.4972 33.469 10.4869 33.4285 10.4464L33.4187 10.4366L33.4083 10.4274C28.986 6.47056 22.2456 5.31032 16.4353 8.0984C8.52991 11.8197 5.06901 21.1095 8.53657 29.6628L8.54395 29.681L8.55273 29.6986C8.65381 29.9007 8.66869 29.9855 8.66869 30.0375C8.66869 30.0894 8.65381 30.1742 8.55273 30.3764L8.54343 30.395L8.53571 30.4143L6.28571 36.0393L5.94867 36.8819L6.84099 36.7166L12.8708 35.6H12.8715H12.8726H12.8738H12.8749H12.876H12.8771H12.8783H12.8794H12.8805H12.8816H12.8827H12.8838H12.8848H12.8859H12.887H12.8881H12.8892H12.8902H12.8913H12.8923H12.8934H12.8945H12.8955H12.8965H12.8976H12.8986H12.8997H12.9007H12.9017H12.9027H12.9037H12.9048H12.9058H12.9068H12.9078H12.9088H12.9098H12.9108H12.9117H12.9127H12.9137H12.9147H12.9156H12.9166H12.9176H12.9185H12.9195H12.9205H12.9214H12.9224H12.9233H12.9242H12.9252H12.9261H12.927H12.928H12.9289H12.9298H12.9307H12.9317H12.9326H12.9335H12.9344H12.9353H12.9362H12.9371H12.938H12.9389H12.9398H12.9406H12.9415H12.9424H12.9433H12.9441H12.945H12.9459H12.9467H12.9476H12.9485H12.9493H12.9502H12.951H12.9519H12.9527H12.9535H12.9544H12.9552H12.9561H12.9569H12.9577H12.9585H12.9594H12.9602H12.961H12.9618H12.9626H12.9634H12.9642H12.965H12.9659H12.9667H12.9674H12.9682H12.969H12.9698H12.9706H12.9714H12.9722H12.973H12.9738H12.9745H12.9753H12.9761H12.9768H12.9776H12.9784H12.9791H12.9799H12.9807H12.9814H12.9822H12.9829H12.9837H12.9844H12.9852H12.9859H12.9867H12.9874H12.9882H12.9889H12.9897H12.9904H12.9911H12.9919H12.9926H12.9933H12.994H12.9948H12.9955H12.9962H12.9969H12.9977H12.9984H12.9991H12.9998H13.0005H13.0012H13.0019H13.0027H13.0034H13.0041H13.0048H13.0055H13.0062H13.0069H13.0076H13.0083H13.009H13.0097H13.0104H13.0111H13.0117H13.0124H13.0131H13.0138H13.0145H13.0152H13.0159H13.0166H13.0172H13.0179H13.0186H13.0193H13.02H13.0207H13.0213H13.022H13.0227H13.0234H13.024H13.0247H13.0254H13.0261H13.0267H13.0274H13.0281H13.0287H13.0294H13.0301H13.0307H13.0314H13.0321H13.0327H13.0334H13.0341H13.0347H13.0354H13.0361H13.0367H13.0374H13.0381H13.0387H13.0394H13.04H13.0407H13.0414H13.042H13.0427H13.0433H13.044H13.0447H13.0453H13.046H13.0466H13.0473H13.048H13.0486H13.0493H13.0499H13.0506H13.0513H13.0519H13.0526H13.0532H13.0539H13.0546H13.0552H13.0559H13.0565H13.0572H13.0579H13.0585H13.0592H13.0598H13.0605H13.0612H13.0618H13.0625H13.0632H13.0638H13.0645H13.0651H13.0658H13.0665H13.0671H13.0678H13.0685H13.0691H13.0698H13.0705H13.0711H13.0718H13.0725H13.0732H13.0738H13.0745H13.0752H13.0759H13.0765H13.0772H13.0779H13.0786H13.0792H13.0799H13.0806H13.0813H13.082H13.0826H13.0833H13.084H13.0847H13.0854H13.0861H13.0868H13.0874H13.0881H13.0888H13.0895H13.0902H13.0909H13.0916H13.0923H13.093H13.0937H13.0944H13.0951H13.0958H13.0965H13.0972H13.0979H13.0987H13.0994H13.1001H13.1008H13.1015H13.1022H13.103H13.1037H13.1044H13.1051H13.1058H13.1066H13.1073H13.108H13.1088H13.1095H13.1102H13.111H13.1117H13.1125H13.1132H13.1139H13.1147H13.1154H13.1162H13.1169H13.1177H13.1185H13.1192H13.12H13.1207H13.1215H13.1223H13.123H13.1238H13.1246H13.1254H13.1261H13.1269H13.1277H13.1285H13.1293H13.1301H13.1308H13.1316H13.1324H13.1332H13.134H13.1348H13.1356H13.1365H13.1373H13.1381H13.1389H13.1397H13.1405H13.1413H13.1422H13.143H13.1438H13.1447H13.1455H13.1463H13.1472H13.148H13.1489H13.1497H13.1506H13.1514H13.1523H13.1531H13.154H13.1549H13.1557H13.1566H13.1575H13.1584H13.1593H13.1601H13.161H13.1619H13.1628H13.1637H13.1646H13.1655H13.1664H13.1673H13.1682H13.1691H13.1701H13.171H13.1719H13.1728H13.1738H13.1747H13.1756H13.1766H13.1775H13.1785H13.1794H13.1804H13.1813H13.1823H13.1833H13.1842H13.1852H13.1862H13.1872H13.1881H13.1891H13.1901H13.1911H13.1921H13.1931H13.1941H13.1951H13.1961H13.1972H13.1982H13.1992H13.2002H13.2013H13.2023H13.2033H13.2044H13.2054H13.2065H13.2075H13.2086H13.2097H13.2107H13.2118H13.2129H13.214H13.215H13.2161H13.2172H13.2183H13.2194H13.2205H13.2216H13.2227H13.2239H13.225H13.2261H13.2272H13.2284H13.2295H13.2307H13.2318H13.233H13.2341H13.2353H13.2364H13.2376H13.2388H13.24H13.2412H13.2423H13.2435H13.2447H13.2459H13.2472H13.2484H13.2496H13.2508H13.252H13.2533H13.2545H13.2557H13.257H13.2582H13.2595H13.2607H13.262H13.2633H13.2646H13.2658H13.2671H13.2684H13.2697H13.271H13.2723H13.2736H13.2749C13.3967 35.6 13.4479 35.6024 13.4912 35.6132C13.5176 35.6198 13.5493 35.6315 13.5964 35.6785L13.6273 35.7095L13.6632 35.7346C15.9702 37.3495 18.7532 38.5145 21.5584 38.7482C24.3366 38.9798 27.348 38.5183 29.9068 37.3552L29.9153 37.3513L29.9235 37.3472C31.321 36.6485 32.4809 35.7205 33.5949 34.8293L33.6123 34.8154Z" fill="#3057F2" stroke="#3057F2"/>
<path d="M39.6 23.625H31.275C30.6 23.625 29.925 23.175 29.925 22.275C29.925 21.6 30.375 20.925 31.275 20.925H39.6C40.275 20.925 40.95 21.375 40.95 22.275C40.95 22.95 40.275 23.625 39.6 23.625Z" fill="#3057F2"/>
<path d="M34.2 26.55V18.225C34.2 17.55 34.65 16.875 35.55 16.875C36.225 16.875 36.9 17.325 36.9 18.225V26.55C36.9 27.225 36.45 27.9 35.55 27.9C34.65 27.675 34.2 27.225 34.2 26.55Z" fill="#3057F2"/>
<path d="M29.7 27.9L27.45 24.975C27 24.3 26.1 23.85 25.2 24.075L22.95 24.3C22.275 23.4 21.825 22.275 21.825 21.15L23.625 19.8C24.3 19.35 24.75 18.45 24.75 17.55L24.3 13.725C24.3 12.825 23.625 12.15 22.95 11.7C20.025 10.35 16.65 11.7 15.525 14.625C12.375 21.6 15.525 29.925 22.5 33.075C25.425 34.425 28.8 33.075 29.925 30.15C30.375 29.475 30.15 28.575 29.7 27.9ZM23.625 30.825C17.775 28.35 15.3 21.6 17.775 15.75C18.45 14.175 20.25 13.5 21.825 14.175L22.275 17.775L20.025 19.35C19.575 19.575 19.35 20.025 19.35 20.475C19.35 22.725 20.25 24.75 21.6 26.325C21.825 26.55 22.275 26.775 22.725 26.775L25.65 26.325L27.9 29.25C27 30.825 25.2 31.5 23.625 30.825Z" fill="#3057F2"/>
</svg>
