<svg width="1342" height="116" viewBox="0 0 1342 116" fill="none" xmlns="http://www.w3.org/2000/svg">
<rect y="38.3359" width="1342" height="76.6667" fill="#FFBB3A"/>
<path fill-rule="evenodd" clip-rule="evenodd" d="M904.187 12.1992C892.901 4.26042 879.439 0 865.64 0H473.97C459.659 0 445.724 4.58212 434.207 13.0753L417.681 25.2607C406.163 33.7538 392.229 38.3359 377.918 38.3359H38.3333C17.1624 38.3359 0 55.4984 0 76.6693C0 97.8402 17.1624 115.003 38.3333 115.003H1303.67C1324.84 115.003 1342 97.8402 1342 76.6693C1342 55.4984 1324.84 38.3359 1303.67 38.3359H962.549C948.75 38.3359 935.288 34.0755 924.002 26.1368L904.187 12.1992Z" fill="#FFBB3A"/>
</svg>
