<svg xmlns="http://www.w3.org/2000/svg" width="93" height="51" fill="#1b1b2b" xmlns:v="https://vecta.io/nano"><path d="M92.094 23.204h-5.939v-5.935h-5.561v5.935h-5.935v5.566h5.935v5.935h5.561V28.77h5.939v-5.566zm-69.905-5.699L34.085.997H5.716V6.73h17.152L11.762 22.384h5.076c6.309 0 11.44 5.132 11.44 11.44s-5.132 11.44-11.44 11.44a11.46 11.46 0 0 1-11.213-9.173L0 37.191c1.567 7.863 8.524 13.807 16.838 13.807 9.469 0 17.173-7.704 17.173-17.173 0-7.601-4.964-14.064-11.823-16.319zm52.414 22.799c-3.406 3.053-7.902 4.917-12.827 4.917-10.603 0-19.235-8.627-19.235-19.235A19.26 19.26 0 0 1 61.775 6.752c4.909 0 9.392 1.851 12.793 4.887l3.788-4.316a24.79 24.79 0 0 0-16.581-6.3 24.8 24.8 0 0 0-17.654 7.313 24.78 24.78 0 0 0-7.309 17.65c0 4.136 1.001 8.121 2.886 11.672l-2.478 8.048 8.585-.528c4.475 3.74 10.066 5.776 15.971 5.776 6.167 0 11.994-2.22 16.564-6.283l-3.736-4.367z"/></svg>