<svg width="189" height="29" viewBox="0 0 189 29" fill="none" xmlns="http://www.w3.org/2000/svg">
<path d="M15.232 5.936L11.328 22H6.24L0.48 1.072H3.84L8.32 17.04L8.64 18.832H9.024L9.344 17.04L13.376 1.072H17.92L22.016 17.04L22.336 18.832H22.752L23.04 17.04L27.584 1.072H30.912L25.152 22H20.032L16.096 5.936L15.872 4.016H15.488L15.232 5.936ZM42.0623 12.816C42.0623 11.8133 41.7636 11.0133 41.1663 10.416C40.5689 9.79733 39.7903 9.488 38.8303 9.488C37.8489 9.488 37.0383 9.808 36.3983 10.448C35.7583 11.0667 35.4383 11.8773 35.4383 12.88H34.9263C34.9263 11.1307 35.4169 9.65867 36.3983 8.464C37.4009 7.26933 38.6809 6.672 40.2383 6.672C41.6889 6.672 42.9049 7.23733 43.8863 8.368C44.8676 9.47733 45.3583 10.8427 45.3583 12.464V22H42.0623V12.816ZM35.4383 7.28L34.5423 11.12L35.4383 11.44V22H32.1743V0.0159988H35.4383V7.28ZM50.3183 17.904C50.3183 18.5013 50.5529 18.9493 51.0223 19.248C51.5129 19.5467 52.1529 19.696 52.9423 19.696C54.0303 19.696 54.9156 19.3867 55.5983 18.768C56.2809 18.1493 56.6223 17.36 56.6223 16.4H57.1983C57.1983 18.2773 56.7076 19.7813 55.7263 20.912C54.7449 22.0427 53.4543 22.608 51.8543 22.608C50.4676 22.608 49.3156 22.2133 48.3983 21.424C47.4809 20.6347 47.0223 19.6213 47.0223 18.384C47.0223 17.2747 47.3529 16.4 48.0143 15.76C48.6969 15.0987 49.7423 14.5653 51.1503 14.16L56.6223 12.72V14.96L52.2703 16.08C50.9689 16.4213 50.3183 17.0293 50.3183 17.904ZM59.9183 22H56.6223L57.5823 18.256L56.6223 17.84V12.272C56.6223 11.4613 56.3449 10.8107 55.7903 10.32C55.2356 9.82933 54.4996 9.584 53.5823 9.584C52.6436 9.584 51.8756 9.872 51.2783 10.448C50.7023 11.0027 50.3609 11.728 50.2543 12.624L47.0223 12.144C47.2569 10.544 47.9609 9.232 49.1343 8.208C50.3076 7.184 51.8116 6.672 53.6463 6.672C55.5023 6.672 57.0063 7.184 58.1583 8.208C59.3316 9.21067 59.9183 10.448 59.9183 11.92V22ZM66.5128 10.032V16.88C66.5128 17.9253 66.6408 18.576 66.8968 18.832C67.1528 19.088 67.7288 19.216 68.6248 19.216H71.1528V22H67.6968C66.2461 22 65.1368 21.6587 64.3688 20.976C63.6221 20.272 63.2488 19.024 63.2488 17.232V10.032H60.5288V7.28H63.2488V2.96L66.5128 2.608V7.28H71.1528V10.032H66.5128ZM83.3398 18.16C83.3398 19.504 82.8278 20.6027 81.8038 21.456C80.7798 22.288 79.4571 22.704 77.8358 22.704C76.1504 22.704 74.6998 22.2453 73.4838 21.328C72.2891 20.4107 71.5211 19.088 71.1798 17.36L74.2838 16.88C74.7744 18.9707 75.8944 20.016 77.6438 20.016C78.3478 20.016 78.9238 19.8347 79.3718 19.472C79.8198 19.1093 80.0438 18.64 80.0438 18.064C80.0438 17.808 79.9798 17.584 79.8518 17.392C79.7451 17.1787 79.6171 17.008 79.4678 16.88C79.3184 16.752 79.0838 16.624 78.7638 16.496C78.4438 16.3467 78.1771 16.24 77.9638 16.176C77.7504 16.112 77.4411 16.016 77.0358 15.888C76.8438 15.8453 76.7051 15.8133 76.6198 15.792C76.0011 15.6 75.4891 15.44 75.0838 15.312C74.6784 15.1627 74.2198 14.9493 73.7078 14.672C73.1958 14.3947 72.7798 14.1067 72.4598 13.808C72.1611 13.5093 71.9051 13.1147 71.6918 12.624C71.4784 12.1333 71.3718 11.5893 71.3718 10.992C71.3718 9.648 71.8518 8.58133 72.8118 7.792C73.7931 7.00267 75.1051 6.608 76.7478 6.608C80.1824 6.608 82.3264 8.21867 83.1798 11.44L80.0438 12.08C79.5958 10.224 78.5824 9.296 77.0038 9.296C76.2784 9.296 75.7024 9.456 75.2758 9.776C74.8491 10.096 74.6358 10.5227 74.6358 11.056C74.6358 11.3547 74.7104 11.6213 74.8598 11.856C75.0091 12.0907 75.2438 12.2933 75.5638 12.464C75.8838 12.6133 76.1824 12.7413 76.4598 12.848C76.7584 12.9547 77.1531 13.0827 77.6438 13.232C77.7291 13.2533 77.8464 13.2853 77.9958 13.328C78.4651 13.456 78.8278 13.5627 79.0838 13.648C79.3398 13.7333 79.6811 13.8613 80.1078 14.032C80.5558 14.2027 80.8971 14.3627 81.1318 14.512C81.3878 14.6613 81.6758 14.864 81.9958 15.12C82.3158 15.376 82.5611 15.6427 82.7318 15.92C82.9024 16.1973 83.0411 16.528 83.1478 16.912C83.2758 17.296 83.3398 17.712 83.3398 18.16ZM87.7733 17.904C87.7733 18.5013 88.0079 18.9493 88.4773 19.248C88.9679 19.5467 89.6079 19.696 90.3973 19.696C91.4853 19.696 92.3706 19.3867 93.0533 18.768C93.7359 18.1493 94.0773 17.36 94.0773 16.4H94.6533C94.6533 18.2773 94.1626 19.7813 93.1813 20.912C92.1999 22.0427 90.9093 22.608 89.3093 22.608C87.9226 22.608 86.7706 22.2133 85.8533 21.424C84.9359 20.6347 84.4773 19.6213 84.4773 18.384C84.4773 17.2747 84.8079 16.4 85.4693 15.76C86.1519 15.0987 87.1973 14.5653 88.6053 14.16L94.0773 12.72V14.96L89.7253 16.08C88.4239 16.4213 87.7733 17.0293 87.7733 17.904ZM97.3733 22H94.0773L95.0373 18.256L94.0773 17.84V12.272C94.0773 11.4613 93.7999 10.8107 93.2453 10.32C92.6906 9.82933 91.9546 9.584 91.0373 9.584C90.0986 9.584 89.3306 9.872 88.7333 10.448C88.1573 11.0027 87.8159 11.728 87.7093 12.624L84.4773 12.144C84.7119 10.544 85.4159 9.232 86.5893 8.208C87.7626 7.184 89.2666 6.672 91.1013 6.672C92.9573 6.672 94.4613 7.184 95.6133 8.208C96.7866 9.21067 97.3733 10.448 97.3733 11.92V22ZM103.889 18.48C103.163 17.584 102.801 16.3147 102.801 14.672C102.801 13.0293 103.163 11.76 103.889 10.864C104.614 9.968 105.617 9.52 106.897 9.52C108.155 9.52 109.137 9.968 109.841 10.864C110.545 11.76 110.897 13.0293 110.897 14.672C110.897 16.336 110.545 17.616 109.841 18.512C109.137 19.3867 108.155 19.824 106.897 19.824C105.617 19.824 104.614 19.376 103.889 18.48ZM103.601 8.752C102.577 10.1387 102.065 12.112 102.065 14.672C102.065 17.232 102.555 19.2053 103.537 20.592C104.539 21.9787 105.937 22.672 107.729 22.672C109.563 22.672 111.099 21.9573 112.337 20.528C113.574 19.0987 114.193 17.1147 114.193 14.576C114.193 12.144 113.606 10.224 112.433 8.816C111.259 7.38667 109.734 6.672 107.857 6.672C106.043 6.672 104.625 7.36533 103.601 8.752ZM99.5368 28.272H102.801V22L101.841 18.192L102.801 17.84V11.44L101.873 11.088L102.801 7.28H99.5368V28.272ZM120.217 18.48C119.492 17.584 119.129 16.3147 119.129 14.672C119.129 13.0293 119.492 11.76 120.217 10.864C120.943 9.968 121.945 9.52 123.225 9.52C124.484 9.52 125.465 9.968 126.169 10.864C126.873 11.76 127.225 13.0293 127.225 14.672C127.225 16.336 126.873 17.616 126.169 18.512C125.465 19.3867 124.484 19.824 123.225 19.824C121.945 19.824 120.943 19.376 120.217 18.48ZM119.929 8.752C118.905 10.1387 118.393 12.112 118.393 14.672C118.393 17.232 118.884 19.2053 119.865 20.592C120.868 21.9787 122.265 22.672 124.057 22.672C125.892 22.672 127.428 21.9573 128.665 20.528C129.903 19.0987 130.521 17.1147 130.521 14.576C130.521 12.144 129.935 10.224 128.761 8.816C127.588 7.38667 126.063 6.672 124.185 6.672C122.372 6.672 120.953 7.36533 119.929 8.752ZM115.865 28.272H119.129V22L118.169 18.192L119.129 17.84V11.44L118.201 11.088L119.129 7.28H115.865V28.272ZM147.742 11.312C148.873 11.12 149.769 10.5973 150.43 9.744C151.091 8.89067 151.422 7.83467 151.422 6.576C151.422 4.784 150.803 3.33333 149.566 2.224C148.35 1.11467 146.771 0.559999 144.83 0.559999C142.889 0.559999 141.331 1.104 140.158 2.192C138.985 3.25867 138.227 4.848 137.886 6.96L140.958 7.6C141.214 6.21333 141.641 5.2 142.238 4.56C142.857 3.89867 143.699 3.568 144.766 3.568C145.769 3.568 146.579 3.87733 147.198 4.496C147.817 5.09333 148.126 5.88267 148.126 6.864C148.126 7.84533 147.891 8.63467 147.422 9.232C146.953 9.82933 146.345 10.128 145.598 10.128H142.526V12.912H145.598C146.366 12.912 146.974 13.2107 147.422 13.808C147.891 14.384 148.126 15.1627 148.126 16.144C148.126 17.1253 147.817 17.9253 147.198 18.544C146.579 19.1413 145.769 19.44 144.766 19.44C143.699 19.44 142.857 19.0667 142.238 18.32C141.641 17.552 141.214 16.368 140.958 14.768L137.886 15.376C138.227 17.7013 138.985 19.4613 140.158 20.656C141.353 21.8507 142.91 22.448 144.83 22.448C146.771 22.448 148.35 21.8933 149.566 20.784C150.803 19.6747 151.422 18.224 151.422 16.432C151.422 15.1733 151.091 14.1173 150.43 13.264C149.769 12.4107 148.873 11.888 147.742 11.696V11.312ZM169.871 7.792L166.703 8.432C165.871 5.296 164.153 3.728 161.551 3.728C159.759 3.728 158.361 4.42133 157.359 5.808C156.356 7.17333 155.855 9.11467 155.855 11.632C155.855 14.1067 156.356 16.0267 157.359 17.392C158.361 18.736 159.759 19.408 161.551 19.408C162.895 19.408 164.036 18.96 164.975 18.064C165.913 17.1467 166.511 15.8667 166.767 14.224L169.967 14.896C169.519 17.3493 168.537 19.248 167.023 20.592C165.508 21.936 163.684 22.608 161.551 22.608C158.799 22.608 156.612 21.648 154.991 19.728C153.369 17.7867 152.559 15.088 152.559 11.632C152.559 8.13333 153.369 5.41333 154.991 3.472C156.612 1.53067 158.799 0.559999 161.551 0.559999C163.471 0.559999 165.167 1.18933 166.639 2.448C168.132 3.70667 169.209 5.488 169.871 7.792ZM183.902 11.824H188.19V14.576H183.902V18.832H181.15V14.576H176.926V11.824H181.15V7.6H183.902V11.824Z" fill="#12263F"/>
</svg>
